<svg xmlns="http://www.w3.org/2000/svg" width="33.75" height="45" viewBox="0 0 33.75 45">
  <path id="clipboard-list" d="M29.531,5.625H22.5a5.625,5.625,0,0,0-11.25,0H4.219A4.22,4.22,0,0,0,0,9.844V40.781A4.22,4.22,0,0,0,4.219,45H29.531a4.22,4.22,0,0,0,4.219-4.219V9.844A4.22,4.22,0,0,0,29.531,5.625ZM8.438,37.266a2.109,2.109,0,1,1,2.109-2.109A2.1,2.1,0,0,1,8.438,37.266Zm0-8.437a2.109,2.109,0,1,1,2.109-2.109A2.1,2.1,0,0,1,8.438,28.828Zm0-8.437a2.109,2.109,0,1,1,2.109-2.109A2.1,2.1,0,0,1,8.438,20.391ZM16.875,3.516a2.109,2.109,0,1,1-2.109,2.109A2.1,2.1,0,0,1,16.875,3.516Zm11.25,32.344a.705.705,0,0,1-.7.7H14.766a.705.705,0,0,1-.7-.7V34.453a.705.705,0,0,1,.7-.7H27.422a.705.705,0,0,1,.7.7Zm0-8.438a.705.705,0,0,1-.7.7H14.766a.705.705,0,0,1-.7-.7V26.016a.705.705,0,0,1,.7-.7H27.422a.705.705,0,0,1,.7.7Zm0-8.437a.705.705,0,0,1-.7.7H14.766a.705.705,0,0,1-.7-.7V17.578a.705.705,0,0,1,.7-.7H27.422a.705.705,0,0,1,.7.7Z" fill="#fff"/>
</svg>
