<svg xmlns="http://www.w3.org/2000/svg" width="31.783" height="42.378" viewBox="0 0 31.783 42.378">
  <path id="file-code" d="M31.783,10.093v.5H21.189V0h.5a1.987,1.987,0,0,1,1.4.582L31.2,8.688A1.987,1.987,0,0,1,31.783,10.093Zm-11.257,3.15a1.992,1.992,0,0,1-1.986-1.986V0H1.986A1.986,1.986,0,0,0,0,1.986v38.4a1.986,1.986,0,0,0,1.986,1.986H29.8a1.986,1.986,0,0,0,1.986-1.986V13.243ZM10.2,33.149a.447.447,0,0,1-.632.02L4.2,28.136a.447.447,0,0,1,0-.652l5.369-5.033a.447.447,0,0,1,.632.02L11.818,24.2a.447.447,0,0,1-.031.641L8.413,27.81l3.374,2.969a.447.447,0,0,1,.031.641L10.2,33.149Zm4.246,4.178-2.272-.66a.447.447,0,0,1-.3-.554L16.952,18.6a.447.447,0,0,1,.554-.3l2.272.66a.447.447,0,0,1,.3.554L15,37.023a.447.447,0,0,1-.554.3Zm13.309-9.191L22.383,33.17a.447.447,0,0,1-.632-.02l-1.621-1.729a.447.447,0,0,1,.031-.641l3.374-2.969-3.374-2.969a.447.447,0,0,1-.031-.641l1.621-1.729a.447.447,0,0,1,.632-.02l5.369,5.033a.447.447,0,0,1,0,.652Z" fill="#fff"/>
</svg>
