<svg xmlns="http://www.w3.org/2000/svg" width="45" height="45" viewBox="0 0 45 45">
  <path id="globe-americas" d="M22.5,8A22.5,22.5,0,1,0,45,30.5,22.5,22.5,0,0,0,22.5,8Zm7.466,32.444c-.354.352-.725.721-1.026,1.023a2.168,2.168,0,0,0-.56.972c-.137.514-.248,1.032-.433,1.531L26.369,48.22a18.131,18.131,0,0,1-3.869.426V46.161a6.793,6.793,0,0,0-2.053-4.65,2.9,2.9,0,0,1-.85-2.053v-2.9A2.894,2.894,0,0,0,18.1,34.017c-1.3-.721-3.158-1.729-4.428-2.369A13.079,13.079,0,0,1,10.8,29.674l-.073-.065a10.414,10.414,0,0,1-1.639-1.882c-.851-1.249-2.237-3.3-3.138-4.64a18.244,18.244,0,0,1,9.363-9.244l2.178,1.09a1.452,1.452,0,0,0,2.1-1.3V12.61a18.132,18.132,0,0,1,2.213-.22l2.568,2.568a1.452,1.452,0,0,1,0,2.053l-.426.425-.938.938a.726.726,0,0,0,0,1.026l.426.426a.726.726,0,0,1,0,1.026l-.726.726a.727.727,0,0,1-.514.212h-.816a.725.725,0,0,0-.506.206l-.9.876a.727.727,0,0,0-.143.845l1.414,2.83A.726.726,0,0,1,20.6,27.6h-.512a.725.725,0,0,1-.475-.178l-.842-.731a1.453,1.453,0,0,0-1.411-.281l-2.828.943a1.084,1.084,0,0,0-.142,2l1.005.5a6.144,6.144,0,0,0,2.75.65c.954,0,2.049,2.476,2.9,2.9h6.056a2.9,2.9,0,0,1,2.053.85L30.4,35.494a2.767,2.767,0,0,1,.81,1.957,4.222,4.222,0,0,1-1.245,2.992Zm7.867-8.288a2.178,2.178,0,0,1-1.284-.9L34.918,28.8a2.175,2.175,0,0,1,0-2.415l1.777-2.666a2.175,2.175,0,0,1,.838-.739l1.178-.589A17.577,17.577,0,0,1,40.48,32.817Z" transform="translate(0 -8)" fill="#fff"/>
</svg>
