<svg xmlns="http://www.w3.org/2000/svg" width="45" height="36" viewBox="0 0 45 36">
  <path id="laptop-code" d="M17.932,18.4a1.125,1.125,0,0,0,1.591,0l.8-.8a1.125,1.125,0,0,0,0-1.591L17.807,13.5l2.511-2.512a1.125,1.125,0,0,0,0-1.591l-.8-.8a1.125,1.125,0,0,0-1.591,0l-4.1,4.1a1.125,1.125,0,0,0,0,1.591Zm6.751-.795.8.8a1.125,1.125,0,0,0,1.591,0l4.1-4.1a1.125,1.125,0,0,0,0-1.591l-4.1-4.1a1.125,1.125,0,0,0-1.591,0l-.8.8a1.125,1.125,0,0,0,0,1.591L27.193,13.5l-2.511,2.512a1.125,1.125,0,0,0,0,1.591ZM43.875,29.25H26.827a2.217,2.217,0,0,1-2.3,2.25H20.25a2.388,2.388,0,0,1-2.3-2.25H1.125A1.128,1.128,0,0,0,0,30.375V31.5A4.513,4.513,0,0,0,4.5,36h36A4.513,4.513,0,0,0,45,31.5V30.375A1.128,1.128,0,0,0,43.875,29.25ZM40.5,3.375A3.385,3.385,0,0,0,37.125,0H7.875A3.385,3.385,0,0,0,4.5,3.375V27h36ZM36,22.5H9V4.5H36Z" fill="#fff"/>
</svg>
