<svg xmlns="http://www.w3.org/2000/svg" width="45" height="31.5" viewBox="0 0 45 31.5">
  <path id="user-friends" d="M13.5,47.75a7.875,7.875,0,1,0-7.875-7.875A7.871,7.871,0,0,0,13.5,47.75ZM18.9,50h-.584a10.873,10.873,0,0,1-9.633,0H8.1A8.1,8.1,0,0,0,0,58.1v2.025A3.376,3.376,0,0,0,3.375,63.5h20.25A3.376,3.376,0,0,0,27,60.125V58.1A8.1,8.1,0,0,0,18.9,50Zm14.85-2.25A6.75,6.75,0,1,0,27,41,6.752,6.752,0,0,0,33.75,47.75ZM37.125,50h-.267a8.867,8.867,0,0,1-6.216,0h-.267a7.81,7.81,0,0,0-3.916,1.083A10.29,10.29,0,0,1,29.25,58.1v2.7c0,.155-.035.3-.042.45H41.625A3.376,3.376,0,0,0,45,57.875,7.871,7.871,0,0,0,37.125,50Z" transform="translate(0 -32)" fill="#fff"/>
</svg>
