<svg xmlns="http://www.w3.org/2000/svg" xmlns:xlink="http://www.w3.org/1999/xlink" width="2836" height="1734" viewBox="0 0 2836 1734"><defs><style>.a{fill:none;}.ad,.b{fill:#fff;}.am,.ap,.c,.f{fill:#b5e0fb;}.aj,.c,.d,.e{opacity:0.161;}.d,.g{fill:#d9c4fb;}.an,.ar,.e,.h{fill:#95da89;}.f,.g,.h,.i{opacity:0.25;}.aj,.ao,.as,.i{fill:#f8e683;}.ah,.al,.au,.j,.s,.t{fill:#424242;}.j{font-size:42px;}.al,.au,.j,.s,.t{font-family:Helvetica-Bold, Helvetica;font-weight:700;}.k{fill:#262e33;opacity:0.072;}.l{fill:#9e7308;}.m{fill:#7a5708;}.n{fill:#f48427;}.o{fill:#f4c916;}.p{fill:#d87023;}.q{fill:#3a2a02;}.r{fill:#1c1401;}.s{font-size:21px;}.t{font-size:28px;}.u{fill:#fcd660;}.v{fill:#d8a30f;}.w{fill:#191919;}.af,.x,.y{fill:#9b9b9b;}.x{opacity:0.09;}.y{opacity:0.47;}.z{fill:#c4c4c4;}.aa{fill:#fc3d21;}.ab{clip-path:url(#e);}.ac{clip-path:url(#f);}.ad{stroke:#3f3f3f;stroke-miterlimit:10;stroke-width:2px;}.ae{fill:#3f3f3f;}.af{opacity:0.34;}.ag{fill:#2d2d2d;}.ah{font-size:20px;font-family:Helvetica;}.ai{fill:#272727;}.ak,.aq{fill:#d9c3fd;}.ak,.am,.an,.ao{stroke:rgba(112,112,112,0.38);}.al{font-size:30px;}.ap,.aq,.ar,.as{opacity:0.35;}.at{clip-path:url(#i);}.au{font-size:48px;}.av{stroke:none;}.aw{filter:url(#g);}.ax{filter:url(#c);}.ay{filter:url(#a);}</style><filter id="a" x="910" y="92" width="1398" height="1642" filterUnits="userSpaceOnUse"><feOffset dy="3" input="SourceAlpha"/><feGaussianBlur stdDeviation="3" result="b"/><feFlood flood-opacity="0.161"/><feComposite operator="in" in2="b"/><feComposite in="SourceGraphic"/></filter><filter id="c" x="2325" y="92" width="511" height="1642" filterUnits="userSpaceOnUse"><feOffset dy="3" input="SourceAlpha"/><feGaussianBlur stdDeviation="3" result="d"/><feFlood flood-opacity="0.161"/><feComposite operator="in" in2="d"/><feComposite in="SourceGraphic"/></filter><clipPath id="e"><rect class="a" width="16.94" height="4.56" transform="translate(42.73 147.42)"/></clipPath><clipPath id="f"><rect class="a" width="16.94" height="4.56" transform="translate(43.15 147.42)"/></clipPath><filter id="g" x="382" y="92" width="511" height="1642" filterUnits="userSpaceOnUse"><feOffset dy="3" input="SourceAlpha"/><feGaussianBlur stdDeviation="3" result="h"/><feFlood flood-opacity="0.161"/><feComposite operator="in" in2="h"/><feComposite in="SourceGraphic"/></filter><clipPath id="i"><rect class="a" width="14.878" height="4.005"/></clipPath></defs><g transform="translate(-45 -64)"><g class="ay" transform="matrix(1, 0, 0, 1, 45, 64)"><rect class="b" width="1380" height="1624" rx="8" transform="translate(919 98)"/></g><rect class="c" width="420" height="419" transform="translate(996 381)"/><rect class="d" width="420" height="419" transform="translate(1441 383)"/><rect class="e" width="420" height="419" transform="translate(1887 381)"/><rect class="f" width="420" height="551" transform="translate(996 838)"/><rect class="g" width="420" height="549" transform="translate(1441 840)"/><g class="ax" transform="matrix(1, 0, 0, 1, 45, 64)"><rect class="b" width="493" height="1624" rx="8" transform="translate(2334 98)"/></g><rect class="h" width="420" height="551" transform="translate(1887 838)"/><rect class="i" width="420" height="549" transform="translate(2416 838)"/><text class="j" transform="translate(82 96)"><tspan x="0" y="0">DATA PUBLICATION PHASES</tspan></text><g transform="translate(29 210)"><g transform="translate(96 171)"><circle class="k" cx="72.5" cy="72.5" r="72.5" transform="translate(0 13.71)"/><g transform="translate(18.057)"><path class="l" d="M15.21,61.17C16.2,66.77,17,71,14,71.5s-8.88-2.77-9.87-8.37S4.8,52.55,7.87,52,14.23,55.57,15.21,61.17Z"/><path class="l" d="M87.71,61.17c-1,5.6-1.82,9.79,1.25,10.33s8.89-2.77,9.87-8.37S98.13,52.55,95.06,52,88.7,55.57,87.71,61.17Z"/><path class="l" d="M28.9,97.6s7.8,22.86.06,28.9c0,0-16,7-25,16s1,21,1,21H51v-55Z"/><path class="l" d="M72.28,97.6s-6.58,22.86-.07,28.9c0,0,16,7,25,16s-1,21-1,21h-46v-55Z"/><path class="m" d="M87.46,55.24c0,23.88-16.34,57.26-36.5,57.26s-36.5-33.38-36.5-57.26S30.81,12,51,12,87.46,31.36,87.46,55.24Z"/><path class="l" d="M93,48.39c0,25.07-18.8,60.11-42,60.11S9,73.46,9,48.39,27.77,3,51,3,93,23.32,93,48.39Z"/><path class="n" d="M22.16,129.85l28.05,3,28.8-3s14.42,7.55,20.1,15-2.9,18.63-2.9,18.63H5s-9.17-11.22-2.58-19.11S22.16,129.85,22.16,129.85Z"/><path class="o" d="M29,126.5s5.66,4.05,21.25,4.05,22-4.05,22-4.05l6.8,3.35S71,135,50.21,135s-28-5.15-28-5.15Z"/><circle class="b" cx="2.56" cy="2.56" r="2.56" transform="translate(47.95 140.59)"/><circle class="b" cx="2.56" cy="2.56" r="2.56" transform="translate(47.95 150.59)"/><circle class="b" cx="2.56" cy="2.56" r="2.56" transform="translate(47.95 160.59)"/><path class="p" d="M77.43,130.66c0,4.3,7,10.7,12.17,14.54a11.671,11.671,0,0,0,3.63,0c3-.56,3.7-2.45,3.7-2.45l-1.18-1.67-7.8-5.9S77.43,126.35,77.43,130.66Z"/><path class="m" d="M42.27,28.33C40.7,18,75.81,21.47,82.45,31c4.22,6.07,8,24,8,24S80.39,39.83,73.2,37.1C65,34,55.65,36,51.45,34.58,40.43,31,44.21,28.15,42.27,28.33Z"/><path class="q" d="M90.46,55h0l2-2c.27,0,.25-1.56,3-5,4-5-1.11-22.84-4.26-26.33C82,11.44,73.46,0,54.46,0c-11,0-25,7-25,7s10,20,14,25c1.74,2.16,16.49,3.08,27,1C83.61,30.4,90.46,55,90.46,55Z"/><path class="q" d="M29.46,7c5.63,9.41,11.75,24,11.75,24s-6.31,4.5-11.75,4.5C11,36.5,12.84,55,12.84,55L9.09,52c-1,0,0,0-.13-2.13C8.43,40.54,10.43,17.75,29.46,7Z"/><path class="r" d="M75.6,94.75l5.83-8.15s4.8-.45,3.53,4.08-1.26,4.53-4.68,6.92S75.6,94.75,75.6,94.75Z"/><path class="q" d="M79,96s0-3,4.22-4.68,4.45,16.42,11.29,13.51,8,4.4,12-4,4.88,6.84-6.68,17.5S79,96,79,96Z"/><path class="q" d="M74.18,103.58s-5.63,15.72,0,20.46c5,4.21.54,7.21,10.27,14.54s12.06-12.08,24.39-12.08C128.69,103.71,93,113.58,93,113.58l-2.5,3.5L79,92.92Z"/><path class="r" d="M84,100.5c1.15,6.34,15.08,11.74,18.84,8-.57,3.49,5.29-2.67,5.29-2.67l-2.7,5.67-11.31,1.78S80.11,99.09,84,100.5Z"/></g></g><text class="s" transform="translate(168 374)"><tspan x="-90.234" y="0">DATA PRODUCER</tspan></text></g><text class="t" transform="translate(1654 220)"><tspan x="-94.63" y="0">PUBLICATION</tspan></text><g transform="translate(29 -224)"><text class="s" transform="translate(168 1265)"><tspan x="-62.615" y="0">NASA DAAC</tspan></text><g transform="translate(96 1062)"><circle class="k" cx="72.5" cy="72.5" r="72.5" transform="translate(0 13.71)"/><g transform="translate(18.17)"><path class="u" d="M15.29,61.17c1,5.6,1.82,9.79-1.25,10.33s-8.88-2.77-9.87-8.37S4.88,52.55,8,52,14.31,55.57,15.29,61.17Z"/><path class="u" d="M87.79,61.17C86.81,66.77,86,71,89,71.5s8.89-2.77,9.87-8.37S98.2,52.55,95.13,52,88.78,55.57,87.79,61.17Z"/><path class="u" d="M29,97.6s2,22.9,0,28.9c0,0-16,7-25,16s1,21,1,21H51v-55Z"/><path class="u" d="M72.35,97.6s-2.06,22.9-.06,28.9c0,0,16,7,25,16s-1,21-1,21h-46v-55Z"/><path class="v" d="M87.54,55.24c0,23.88-16.34,57.26-36.5,57.26s-36.5-33.38-36.5-57.26S30.88,12,51,12,87.54,31.36,87.54,55.24Z"/><path class="u" d="M93,48.39c0,25.07-18.8,60.11-42,60.11S9,73.46,9,48.39,27.85,3,51,3,93,23.32,93,48.39Z"/><path class="v" d="M44.7,33.7s24.26-4,31-.83S90.54,55,90.54,55s-11.23-18.79-16-17.26C50.29,45.5,44.7,33.7,44.7,33.7Z"/><path class="w" d="M90.54,55h0l2-2c.27,0,.25-1.56,3-5,4-5-2.5-27.06-2.5-27.06S73.54,0,54.54,0c-11,0-25,7-25,7s10,20,14,25c1.73,2.16,17.74-3.31,27,1C82.69,38.65,90.54,55,90.54,55Z"/><path d="M74.54,35l21-7s-16,10.67-18,9.67A7.8,7.8,0,0,1,74.54,35Z"/><path class="x" d="M36.46,18.73s26.81-3,30.84-1.41c6.85,2.6,22.27,11.4,22.27,11.4l4.12,3.8S75.88,18.24,66.44,16.77C62.89,16.22,36.46,18.73,36.46,18.73Z"/><path class="w" d="M43.54,32c.33,4,22.36,8.62,42,1,9.79-3.79,22.22-11.88,21-15s-10.75,7.29-30.88,1.65S43.25,28.47,43.54,32Z"/><path class="w" d="M29.54,7c5.63,9.41,11.75,24,11.75,24S35,35.5,29.54,35.5C11,36.5,12.92,55,12.92,55L9.16,52c-1,0,0,0-.12-2.13C8.51,40.54,10.51,17.75,29.54,7Z"/><path class="y" d="M23.16,33.44s-7.67,1.11-9.75,4.27C12.57,39,12,42.51,12,42.51L10.1,52.73l.92.75,1.52-10.21s1.09-4,1.68-5.32C15.45,35.29,23.16,33.44,23.16,33.44Z"/><path class="x" d="M75.12,35.56l12.93-4a99.511,99.511,0,0,0,9.39-4.94c4.89-2.93,6.57-4.83,6.57-4.83s-10.21,6.68-16,9.12S75.12,35.56,75.12,35.56Z"/><path class="z" d="M22.16,129.85l28.05,3,28.8-3s14.42,7.55,20.1,15-2.9,18.63-2.9,18.63H5s-9.17-11.22-2.58-19.11S22.16,129.85,22.16,129.85Z"/><path class="aa" d="M29,126.5s5.66,4.05,21.25,4.05,22-4.05,22-4.05l6.8,3.35S71,135,50.21,135s-28-5.15-28-5.15Z"/><g class="ab"><path class="aa" d="M49.39,147.42a1.18,1.18,0,0,0-1.1.78h0L47,152.12l.89.29,1.27-3.9a.224.224,0,0,1,.43,0l1.27,3.9.89-.29L50.5,148.2h0A1.16,1.16,0,0,0,49.39,147.42Z"/></g><path class="aa" d="M52.78,147.54a1.34,1.34,0,1,0,0,2.68H54a.41.41,0,0,1,0,.82H51.32V152H54a1.35,1.35,0,1,0,0-2.69H52.78a.41.41,0,0,1,0-.82h2.28v-.93Z"/><g class="ac"><path class="aa" d="M57.54,147.42a1.16,1.16,0,0,0-1.1.78h0l-1.27,3.92.89.29,1.27-3.9a.23.23,0,0,1,.22-.16.24.24,0,0,1,.22.16h0l1.26,3.9.89-.29-1.27-3.92h0a1.17,1.17,0,0,0-1.11-.78Z"/></g><path class="aa" d="M43.84,147.42a1.18,1.18,0,0,0-1.17,1.17V152h.94v-3.39a.23.23,0,0,1,.45-.08l.78,2.79h0a1.17,1.17,0,0,0,2.27-.39v-3.39h-.93v3.39a.23.23,0,0,1-.45.08l-.78-2.8h0a1.17,1.17,0,0,0-1.11-.79Z"/><circle class="ad" cx="10.5" cy="10.5" r="10.5" transform="translate(25.43 48.95)"/><circle class="ad" cx="10.5" cy="10.5" r="10.5" transform="translate(56.43 48.95)"/><path class="ae" d="M45.47,58.82v3.11a19.62,19.62,0,0,1,5.62-1.44,19.61,19.61,0,0,1,5.63,1.44V58.82a15.3,15.3,0,0,0-5.63-1.2A15.22,15.22,0,0,0,45.47,58.82Z"/><path class="af" d="M9.46,52.19s.17-.92.21-1.33-.21-.41-.21-1.1a3.29,3.29,0,0,1,.12-1l.14,1.36a5.44,5.44,0,0,1,.18.68c-.09.53-.14,1.65-.14,1.65Z"/><path class="y" d="M91.42,54.11s.52-3.28.48-3.89S89,43.49,89,43.49s3.09,6,3.09,6.64-.22,3.52-.22,3.52Z"/><path class="ag" d="M92.65,52.73l-.31.47-.45.45.14-2a1.42,1.42,0,0,1,.36-.09.92.92,0,0,0,.5-.09c.12-.09.63-.67.63-.67Z"/></g></g></g><rect class="a" width="284" height="287" rx="8" transform="translate(997 423.5)"/><g transform="translate(949 11)"><text class="ah" transform="translate(96 414)"><tspan x="0" y="15">Complete Data Publication Request </tspan></text><circle class="ai" cx="6" cy="6" r="6" transform="translate(75 417)"/></g><g transform="translate(949 62)"><text class="ah" transform="translate(96 414)"><tspan x="0" y="15">Provide updated sample data</tspan></text><circle class="ai" cx="6" cy="6" r="6" transform="translate(75 417)"/></g><rect class="a" width="284" height="287" rx="8" transform="translate(996 880.5)"/><g transform="translate(948 468)"><text class="ah" transform="translate(96 414)"><tspan x="0" y="15">Review Data Publication Request </tspan></text><circle class="ai" cx="6" cy="6" r="6" transform="translate(75 417)"/></g><g transform="translate(948 532)"><text class="ah" transform="translate(96 414)"><tspan x="0" y="15">Assess and plan for data </tspan><tspan x="0" y="39">storage needs</tspan></text><circle class="ai" cx="6" cy="6" r="6" transform="translate(75 417)"/></g><g transform="translate(971 486.5)"><rect class="a" width="284" height="287" rx="8" transform="translate(53 394)"/></g><text class="t" transform="translate(2626 220)"><tspan x="-136.644" y="0">POST-PUBLICATION</tspan></text><rect class="aj" width="420" height="419" transform="translate(2416 382)"/><rect class="a" width="284" height="287" rx="8" transform="translate(1441.5 425)"/><g transform="translate(1393.5 13)"><text class="ah" transform="translate(96 414)"><tspan x="0" y="15">Produce data and metadata per DAAC </tspan><tspan x="0" y="39">specifications</tspan></text><circle class="ai" cx="6" cy="6" r="6" transform="translate(75 417)"/></g><g transform="translate(1393.5 100)"><text class="ah" transform="translate(96 414)"><tspan x="0" y="15">Provide all data files and other </tspan><tspan x="0" y="39">relevant documentation</tspan></text><circle class="ai" cx="6" cy="6" r="6" transform="translate(75 417)"/></g><g transform="translate(1393.5 185)"><text class="ah" transform="translate(96 414)"><tspan x="0" y="15">Provide code/tools (if available)</tspan></text><circle class="ai" cx="6" cy="6" r="6" transform="translate(75 417)"/></g><g transform="translate(1393.5 248)"><text class="ah" transform="translate(96 414)"><tspan x="0" y="15">Review DAAC-prepared materials, as </tspan><tspan x="0" y="39">needed</tspan></text><circle class="ai" cx="6" cy="6" r="6" transform="translate(75 417)"/></g><rect class="a" width="284" height="287" rx="8" transform="translate(1442 883)"/><g transform="translate(1394 471)"><text class="ah" transform="translate(96 414)"><tspan x="0" y="15">Establish data product DOI </tspan><tspan x="0" y="39">and citation</tspan></text><circle class="ai" cx="6" cy="6" r="6" transform="translate(75 417)"/></g><g transform="translate(1394 552)"><text class="ah" transform="translate(96 414)"><tspan x="0" y="15">Curate metadata to support data </tspan><tspan x="0" y="39">ingest and discovery</tspan></text><circle class="ai" cx="6" cy="6" r="6" transform="translate(75 417)"/></g><g transform="translate(1393 692)"><text class="ah" transform="translate(96 414)"><tspan x="0" y="15">Configure existing or create new tools </tspan><tspan x="0" y="39">and services, per the LoS</tspan></text><circle class="ai" cx="6" cy="6" r="6" transform="translate(75 417)"/></g><g transform="translate(1394 773)"><text class="ah" transform="translate(96 414)"><tspan x="0" y="15">Verify data accessibility in all </tspan><tspan x="0" y="39">supported distribution methods</tspan></text><circle class="ai" cx="6" cy="6" r="6" transform="translate(75 417)"/></g><g transform="translate(1393 632)"><text class="ah" transform="translate(96 414)"><tspan x="0" y="15">Ingest all data files</tspan></text><circle class="ai" cx="6" cy="6" r="6" transform="translate(75 417)"/></g><g transform="translate(1394 854)"><text class="ah" transform="translate(96 414)"><tspan x="0" y="15">Generate data product landing page </tspan></text><circle class="ai" cx="6" cy="6" r="6" transform="translate(75 417)"/></g><g transform="translate(1394 911)"><text class="ah" transform="translate(96 414)"><tspan x="0" y="15">Create outreach materials, per the LoS </tspan></text><circle class="ai" cx="6" cy="6" r="6" transform="translate(75 417)"/></g><rect class="a" width="284" height="287" rx="8" transform="translate(2415.5 423)"/><g transform="translate(2367.5 10.5)"><text class="ah" transform="translate(96 414)"><tspan x="0" y="15">When data creation is ongoing, </tspan><tspan x="0" y="39">continue to provide data per agreed </tspan><tspan x="0" y="63">delivery frequency</tspan></text><circle class="ai" cx="6" cy="6" r="6" transform="translate(75 417)"/></g><rect class="a" width="284" height="287" rx="8" transform="translate(2416 881.5)"/><g transform="translate(2368 469)"><text class="ah" transform="translate(96 414)"><tspan x="0" y="15">Serve as primary point-of-contact with </tspan><tspan x="0" y="39">data users </tspan></text><circle class="ai" cx="6" cy="6" r="6" transform="translate(75 417)"/></g><g transform="translate(2368 776)"><text class="ah" transform="translate(96 414)"><tspan x="0" y="15">Maintain and update tools and </tspan><tspan x="0" y="39">services, as needed</tspan></text><circle class="ai" cx="6" cy="6" r="6" transform="translate(75 417)"/></g><g transform="translate(2368 857)"><text class="ah" transform="translate(96 414)"><tspan x="0" y="15">Track data product usage metrics </tspan></text><circle class="ai" cx="6" cy="6" r="6" transform="translate(75 417)"/></g><g transform="translate(2368 695)"><text class="ah" transform="translate(96 414)"><tspan x="0" y="15">Conduct data product outreach, </tspan><tspan x="0" y="39">per the LoS </tspan></text><circle class="ai" cx="6" cy="6" r="6" transform="translate(75 417)"/></g><g transform="translate(2368 568)"><text class="ah" transform="translate(96 414)"><tspan x="0" y="15">When data creation is ongoing, </tspan><tspan x="0" y="39">continue to ingest data and make </tspan><tspan x="0" y="63">accessible in all supported </tspan><tspan x="0" y="87">distribution methods</tspan></text><circle class="ai" cx="6" cy="6" r="6" transform="translate(75 417)"/></g><rect class="a" width="284" height="287" rx="8" transform="translate(1886 424)"/><g transform="translate(1838 11.5)"><text class="ah" transform="translate(96 414)"><tspan x="0" y="15">Approve data product release to </tspan><tspan x="0" y="39">the public</tspan></text><circle class="ai" cx="6" cy="6" r="6" transform="translate(75 417)"/></g><rect class="a" width="284" height="287" rx="8" transform="translate(1887 881.5)"/><g transform="translate(1839 469)"><text class="ah" transform="translate(96 414)"><tspan x="0" y="15">Release data product to the public and </tspan><tspan x="0" y="39">make it discoverable</tspan></text><circle class="ai" cx="6" cy="6" r="6" transform="translate(75 417)"/></g><g transform="translate(1839 549)"><text class="ah" transform="translate(96 414)"><tspan x="0" y="15">Activate data product DOI and </tspan><tspan x="0" y="39">landing page</tspan></text><circle class="ai" cx="6" cy="6" r="6" transform="translate(75 417)"/></g><g transform="translate(1839 645)"><text class="ah" transform="translate(96 414)"><tspan x="0" y="15">Announce the release of data product </tspan></text><circle class="ai" cx="6" cy="6" r="6" transform="translate(75 417)"/></g><g transform="translate(656 -216)"><g class="ak" transform="translate(785 479)"><rect class="av" width="420" height="119"/><rect class="a" x="0.5" y="0.5" width="419" height="118"/></g><text class="al" transform="translate(814 528)"><tspan x="34.518" y="23">Document &amp; Archive</tspan></text></g><g transform="translate(211 -216)"><g class="am" transform="translate(785 479)"><rect class="av" width="420" height="119"/><rect class="a" x="0.5" y="0.5" width="419" height="118"/></g><text class="al" transform="translate(814 528)"><tspan x="68.956" y="23">Plan &amp; Evaluate</tspan></text></g><g transform="translate(1102 -216)"><g class="an" transform="translate(785 479)"><rect class="av" width="420" height="119"/><rect class="a" x="0.5" y="0.5" width="419" height="118"/></g><text class="al" transform="translate(814 528)"><tspan x="124.789" y="23">Release</tspan></text></g><g transform="translate(1631 -215)"><g class="ao" transform="translate(785 479)"><rect class="av" width="420" height="119"/><rect class="a" x="0.5" y="0.5" width="419" height="118"/></g><text class="al" transform="translate(814 528)"><tspan x="44.01" y="23">Support &amp; Maintain</tspan></text></g><g class="aw" transform="matrix(1, 0, 0, 1, 45, 64)"><rect class="b" width="493" height="1624" rx="8" transform="translate(391 98)"/></g><rect class="i" width="420" height="549" transform="translate(473 838)"/><text class="t" transform="translate(683 220)"><tspan x="-128.078" y="0">PRE-PUBLICATION</tspan></text><rect class="aj" width="420" height="419" transform="translate(473 382)"/><rect class="a" width="284" height="287" rx="8" transform="translate(472.5 423)"/><g transform="translate(424.5 10.5)"><text class="ah" transform="translate(96 414)"><tspan x="0" y="15">Complete Data Accession Request</tspan></text><circle class="ai" cx="6" cy="6" r="6" transform="translate(75 417)"/></g><g transform="translate(424.5 63)"><text class="ah" transform="translate(96 414)"><tspan x="0" y="15">Provide sample data and supporting </tspan><tspan x="0" y="39">documentation</tspan></text><circle class="ai" cx="6" cy="6" r="6" transform="translate(75 417)"/></g><rect class="a" width="284" height="287" rx="8" transform="translate(472.5 881.5)"/><g transform="translate(424.5 469)"><text class="ah" transform="translate(96 414)"><tspan x="0" y="15">Review and initiate NASA Data </tspan><tspan x="0" y="39">Accession process </tspan></text><circle class="ai" cx="6" cy="6" r="6" transform="translate(75 417)"/></g><g transform="translate(424.5 540)"><text class="ah" transform="translate(96 414)"><tspan x="0" y="15">Notify Data Producer of outcome</tspan></text><circle class="ai" cx="6" cy="6" r="6" transform="translate(75 417)"/></g><g transform="translate(-312 -215)"><g class="ao" transform="translate(785 479)"><rect class="av" width="420" height="119"/><rect class="a" x="0.5" y="0.5" width="419" height="118"/></g><text class="al" transform="translate(814 528)"><tspan x="114.82" y="23">Approve*</tspan></text></g><rect class="ap" width="420" height="323" transform="translate(996 1422)"/><rect class="aq" width="420" height="323" transform="translate(1441 1424)"/><rect class="ar" width="420" height="323" transform="translate(1887 1422)"/><rect class="as" width="420" height="323" transform="translate(2416 1422)"/><rect class="as" width="420" height="323" transform="translate(473 1422)"/><g transform="translate(-78 118)"><g transform="translate(13.19)"><g transform="translate(94 1306)"><g transform="translate(15.809 0)"><circle class="k" cx="63.675" cy="63.675" r="63.675" transform="translate(0 12.041)"/><g transform="translate(15.892 0)"><path class="l" d="M13.827,60.048c.87,4.918,1.572,8.634-1.063,9.073s-7.8-2.433-8.669-7.351.588-9.292,3.285-9.775S12.966,55.129,13.827,60.048Z" transform="translate(-0.501 -6.323)"/><path class="l" d="M87.6,60.048c-.878,4.918-1.6,8.6,1.1,9.073s7.808-2.433,8.669-7.351-.615-9.292-3.311-9.775S88.469,55.129,87.6,60.048Z" transform="translate(-10.598 -6.323)"/><path class="l" d="M25.407,97.6s6.851,20.078.053,25.382c0,0-14.053,6.148-21.957,14.053s.878,18.444.878,18.444H44.817V107.173Z" transform="translate(-0.058 -11.88)"/><path class="l" d="M69.594,97.6s-5.779,20.078-.061,25.382c0,0,14.053,6.148,21.957,14.053s-.878,18.444-.878,18.444H50.21V107.173Z" transform="translate(-6.144 -11.88)"/><path class="m" d="M78.575,49.977c0,20.973-14.351,50.29-32.057,50.29S14.46,70.95,14.46,49.977,28.82,12,46.552,12,78.575,29,78.575,49.977Z" transform="translate(-1.793 -1.461)"/><path class="l" d="M82.776,42.865c0,22.019-16.512,52.794-36.888,52.794S9,64.884,9,42.865,25.485,3,45.888,3,82.776,20.847,82.776,42.865Z" transform="translate(-1.128 -0.365)"/><path class="n" d="M19.467,129.85,44.1,132.485,69.4,129.85s12.665,6.631,17.653,13.174S84.5,159.387,84.5,159.387H4.4S-3.658,149.532,2.13,142.6,19.467,129.85,19.467,129.85Z" transform="translate(-0.037 -15.805)"/><path class="o" d="M28.174,126.5s4.971,3.557,18.664,3.557S66.159,126.5,66.159,126.5l5.972,2.942s-7.07,4.523-25.33,4.523-24.592-4.523-24.592-4.523Z" transform="translate(-2.736 -15.397)"/><circle class="b" cx="2.248" cy="2.248" r="2.248" transform="translate(42.081 123.478)"/><circle class="b" cx="2.248" cy="2.248" r="2.248" transform="translate(42.081 132.261)"/><circle class="b" cx="2.248" cy="2.248" r="2.248" transform="translate(42.081 141.043)"/><path class="p" d="M77.43,130.516c0,3.777,6.148,9.4,10.689,12.77a10.25,10.25,0,0,0,3.188,0c2.635-.492,3.25-2.152,3.25-2.152l-1.036-1.467-6.851-5.182S77.43,126.73,77.43,130.516Z" transform="translate(-9.457 -15.759)"/><path class="m" d="M42.264,27.565c-1.379-9.073,29.458-6.025,35.289,2.345,3.706,5.331,7.026,21.079,7.026,21.079s-8.836-13.324-15.15-15.721c-7.2-2.723-15.414-.966-19.1-2.213C40.648,29.91,43.968,27.407,42.264,27.565Z" transform="translate(-5.171 -2.683)"/><path class="q" d="M83.035,48.306h0l1.757-1.757c.237,0,.22-1.37,2.635-4.391,3.513-4.391-.975-20.06-3.741-23.125C75.6,10.048,68.1,0,51.417,0,41.756,0,29.46,6.148,29.46,6.148s8.783,17.566,12.3,21.957c1.528,1.9,14.483,2.705,23.714.878C77.019,26.7,83.035,48.306,83.035,48.306Z" transform="translate(-3.618)"/><path class="q" d="M26.926,7c4.945,8.265,10.32,21.079,10.32,21.079s-5.542,3.952-10.32,3.952c-16.213.878-14.6,17.127-14.6,17.127L9.035,46.523c-.878,0,0,0-.114-1.871C8.456,36.458,10.212,16.442,26.926,7Z" transform="translate(-1.084 -0.852)"/><path class="r" d="M75.6,93.757,80.72,86.6s4.216-.4,3.1,3.583-1.107,3.979-4.11,6.078S75.6,93.757,75.6,93.757Z" transform="translate(-9.235 -10.539)"/><path class="q" d="M79,95.417s0-2.635,3.706-4.11,3.908,14.421,9.916,11.866,7.026,3.864,10.539-3.513,4.286,6.007-5.867,15.37S79,95.417,79,95.417Z" transform="translate(-9.648 -11.102)"/><path class="q" d="M73.875,102.282s-4.945,13.807,0,17.97c4.391,3.7.474,6.332,9.02,12.77s10.592-10.61,21.421-10.61C121.751,102.4,90.4,111.065,90.4,111.065l-2.2,3.074L78.109,92.92Z" transform="translate(-8.757 -11.31)"/><path class="r" d="M83.917,100.488c1.01,5.568,13.245,10.311,16.547,7.026-.5,3.065,4.646-2.345,4.646-2.345l-2.371,4.98-9.933,1.563S80.5,99.25,83.917,100.488Z" transform="translate(-10.174 -12.221)"/></g></g></g><g transform="translate(303 1306)"><g transform="translate(0 0)"><circle class="k" cx="63.675" cy="63.675" r="63.675" transform="translate(0 12.041)"/><g transform="translate(15.991 0)"><path class="u" d="M13.9,60.048c.878,4.918,1.6,8.6-1.1,9.073s-7.8-2.433-8.669-7.351.624-9.292,3.364-9.775S13.041,55.129,13.9,60.048Z" transform="translate(-0.506 -6.323)"/><path class="u" d="M87.682,60.048c-.861,4.918-1.572,8.634,1.063,9.073s7.808-2.433,8.669-7.351-.588-9.292-3.285-9.775S88.551,55.129,87.682,60.048Z" transform="translate(-10.61 -6.323)"/><path class="u" d="M25.5,97.6s1.757,20.113,0,25.382c0,0-14.053,6.148-21.957,14.053s.878,18.444.878,18.444h40.4V107.173Z" transform="translate(-0.062 -11.88)"/><path class="u" d="M69.665,97.6s-1.809,20.113-.053,25.382c0,0,14.053,6.148,21.957,14.053s-.878,18.444-.878,18.444H50.29V107.173Z" transform="translate(-6.154 -11.88)"/><path class="v" d="M78.655,49.977c0,20.973-14.351,50.29-32.057,50.29S14.54,70.95,14.54,49.977,28.891,12,46.562,12,78.655,29,78.655,49.977Z" transform="translate(-1.802 -1.461)"/><path class="u" d="M82.776,42.865c0,22.019-16.512,52.794-36.888,52.794S9,64.884,9,42.865,25.556,3,45.888,3,82.776,20.847,82.776,42.865Z" transform="translate(-1.128 -0.365)"/><path class="v" d="M44.7,33.45s21.307-3.513,27.227-.729S84.96,52.158,84.96,52.158,75.1,35.655,70.908,37C49.61,43.814,44.7,33.45,44.7,33.45Z" transform="translate(-5.473 -3.852)"/><path class="w" d="M83.115,48.306h0l1.757-1.757c.237,0,.22-1.37,2.635-4.391,3.513-4.391-2.2-23.766-2.2-23.766S68.184,0,51.5,0C41.836,0,29.54,6.148,29.54,6.148s8.783,17.566,12.3,21.957c1.519,1.9,15.581-2.907,23.714.878C76.221,33.946,83.115,48.306,83.115,48.306Z" transform="translate(-3.628)"/><path d="M74.54,34.148,92.984,28s-14.053,9.371-15.809,8.493A6.851,6.851,0,0,1,74.54,34.148Z" transform="translate(-9.106 -3.408)"/><path class="x" d="M36.46,18.482s23.547-2.635,27.086-1.238c6.016,2.284,19.559,10.012,19.559,10.012l3.619,3.337S71.082,18.051,62.791,16.76C59.673,16.277,36.46,18.482,36.46,18.482Z" transform="translate(-4.471 -2.032)"/><path class="w" d="M43.539,30.223c.29,3.513,19.638,7.571,36.888.878,8.6-3.329,19.515-10.434,18.444-13.174s-9.442,6.4-27.121,1.449S43.285,27.123,43.539,30.223Z" transform="translate(-5.332 -2.118)"/><path class="w" d="M27,7c4.945,8.265,10.32,21.079,10.32,21.079S31.8,32.031,27,32.031c-16.283.878-14.6,17.127-14.6,17.127l-3.3-2.635c-.878,0,0,0-.105-1.871C8.534,36.458,10.291,16.442,27,7Z" transform="translate(-1.093 -0.852)"/><path class="y" d="M21.57,33.44s-6.736.975-8.563,3.75a15.835,15.835,0,0,0-1.238,4.216L10.1,50.382l.808.659,1.335-8.967S13.2,38.56,13.719,37.4C14.8,35.065,21.57,33.44,21.57,33.44Z" transform="translate(-1.262 -4.07)"/><path class="x" d="M75.12,33.884l11.356-3.513a87.4,87.4,0,0,0,8.247-4.339,26.59,26.59,0,0,0,5.77-4.242s-8.967,5.867-14.053,8.01S75.12,33.884,75.12,33.884Z" transform="translate(-9.176 -2.652)"/><path class="z" d="M19.467,129.85,44.1,132.485,69.4,129.85s12.665,6.631,17.653,13.174S84.5,159.387,84.5,159.387H4.4S-3.658,149.532,2.13,142.6,19.467,129.85,19.467,129.85Z" transform="translate(-0.037 -15.805)"/><path class="aa" d="M28.174,126.5s4.971,3.557,18.664,3.557S66.159,126.5,66.159,126.5l5.972,2.942s-7.07,4.523-25.33,4.523-24.592-4.523-24.592-4.523Z" transform="translate(-2.736 -15.397)"/><g class="at" transform="translate(37.496 129.476)"><path class="aa" d="M49.1,147.42a1.036,1.036,0,0,0-.966.685h0L47,151.548l.782.255,1.115-3.425a.2.2,0,0,1,.378,0L50.39,151.8l.782-.255-1.1-3.443h0A1.019,1.019,0,0,0,49.1,147.42Z" transform="translate(-43.25 -147.42)"/></g><path class="aa" d="M52.6,147.54a1.177,1.177,0,1,0,0,2.354h1.072a.36.36,0,1,1,0,.72H51.32v.843h2.354a1.186,1.186,0,1,0,0-2.363H52.6a.36.36,0,0,1,0-.72h2v-.817Z" transform="translate(-6.279 -17.958)"/><g class="at" transform="translate(37.865 129.476)"><path class="aa" d="M57.252,147.42a1.019,1.019,0,0,0-.966.685h0l-1.115,3.443.782.255,1.115-3.425a.2.2,0,0,1,.193-.141.211.211,0,0,1,.193.141h0L58.56,151.8l.782-.255-1.115-3.443h0a1.028,1.028,0,0,0-.975-.685Z" transform="translate(-44.613 -147.42)"/></g><path class="aa" d="M43.7,147.42a1.036,1.036,0,0,0-1.028,1.028v2.995H43.5v-2.977a.2.2,0,0,1,.4-.07l.685,2.45h0a1.028,1.028,0,0,0,1.994-.343v-2.977h-.817V150.5a.2.2,0,0,1-.4.07l-.685-2.459h0a1.028,1.028,0,0,0-.975-.694Z" transform="translate(-5.226 -17.944)"/><circle class="ad" cx="9.222" cy="9.222" r="9.222" transform="translate(22.302 42.992)"/><circle class="ad" cx="9.222" cy="9.222" r="9.222" transform="translate(49.529 42.992)"/><path class="ae" d="M45.47,58.674v2.731a17.232,17.232,0,0,1,4.936-1.265,17.223,17.223,0,0,1,4.945,1.265V58.674a13.438,13.438,0,0,0-4.945-1.054A13.367,13.367,0,0,0,45.47,58.674Z" transform="translate(-5.567 -7.013)"/><path class="af" d="M9.46,51.773s.149-.808.184-1.168-.184-.36-.184-.966a2.89,2.89,0,0,1,.105-.878l.123,1.194a4.778,4.778,0,0,1,.158.6C9.767,51.017,9.723,52,9.723,52Z" transform="translate(-1.184 -5.935)"/><path class="y" d="M91.125,52.817s.457-2.881.422-3.417S89,43.49,89,43.49a57.993,57.993,0,0,1,2.714,5.832c0,.562-.193,3.092-.193,3.092Z" transform="translate(-10.866 -5.293)"/><path class="ag" d="M92.557,52.5l-.272.413-.4.4.123-1.757a1.247,1.247,0,0,1,.316-.079.808.808,0,0,0,.439-.079c.105-.079.553-.588.553-.588Z" transform="translate(-11.217 -6.183)"/></g></g></g><text class="au" transform="translate(257 1410)"><tspan x="0" y="0">+</tspan></text></g><text class="s" transform="translate(275 1491)"><tspan x="-29.747" y="0">BOTH</tspan></text></g><rect class="a" width="284" height="287" rx="8" transform="translate(473 1461)"/><g transform="translate(425 1048.5)"><text class="ah" transform="translate(96 414)"><tspan x="0" y="15">Clarify information, as needed</tspan></text><circle class="ai" cx="6" cy="6" r="6" transform="translate(75 417)"/></g><rect class="a" width="284" height="287" rx="8" transform="translate(996 1461)"/><g transform="translate(948 1048.5)"><text class="ah" transform="translate(96 414)"><tspan x="0" y="15">Determine appropriate data product </tspan><tspan x="0" y="39">Level of Service (LoS)** </tspan></text><circle class="ai" cx="6" cy="6" r="6" transform="translate(75 417)"/></g><g transform="translate(948 1122.5)"><text class="ah" transform="translate(96 414)"><tspan x="0" y="15">Determine appropriate data and </tspan><tspan x="0" y="39">metadata requirements</tspan></text><circle class="ai" cx="6" cy="6" r="6" transform="translate(75 417)"/></g><rect class="a" width="284" height="287" rx="8" transform="translate(1442 1461)"/><g transform="translate(1394 1049)"><text class="ah" transform="translate(96 414)"><tspan x="0" y="15">Test data ingest</tspan></text><circle class="ai" cx="6" cy="6" r="6" transform="translate(75 417)"/></g><g transform="translate(1394 1116)"><text class="ah" transform="translate(96 414)"><tspan x="0" y="15">Curate content in user guides and </tspan><tspan x="0" y="39">related documentation </tspan></text><circle class="ai" cx="6" cy="6" r="6" transform="translate(75 417)"/></g><g transform="translate(1393 1202)"><text class="ah" transform="translate(96 414)"><tspan x="0" y="15">Test relevant tools and services </tspan></text><circle class="ai" cx="6" cy="6" r="6" transform="translate(75 417)"/></g><rect class="a" width="284" height="287" rx="8" transform="translate(1887 1461)"/><g transform="translate(1839 1048.5)"><text class="ah" transform="translate(96 414)"><tspan x="0" y="15">Conduct pre-release review of </tspan><tspan x="0" y="39">data product and related </tspan><tspan x="0" y="63">information and services</tspan></text><circle class="ai" cx="6" cy="6" r="6" transform="translate(75 417)"/></g><rect class="a" width="284" height="287" rx="8" transform="translate(2416 1461)"/><g transform="translate(2368 1049)"><text class="ah" transform="translate(96 414)"><tspan x="0" y="15">Provide assistance to data </tspan><tspan x="0" y="39">users as needed</tspan></text><circle class="ai" cx="6" cy="6" r="6" transform="translate(75 417)"/></g><g transform="translate(2368 1135)"><text class="ah" transform="translate(96 414)"><tspan x="0" y="15">Address errors and issues with data </tspan><tspan x="0" y="39">and metadata, as needed</tspan></text><circle class="ai" cx="6" cy="6" r="6" transform="translate(75 417)"/></g><g transform="translate(2367 1221)"><text class="ah" transform="translate(96 414)"><tspan x="0" y="15">Maintain and update metadata, </tspan><tspan x="0" y="39">documentation, and web pages, </tspan><tspan x="0" y="63">as needed</tspan></text><circle class="ai" cx="6" cy="6" r="6" transform="translate(75 417)"/></g></g></svg>