<svg xmlns="http://www.w3.org/2000/svg" width="25" height="36.364" viewBox="0 0 25 36.364">
  <path id="lightbulb" d="M6.822,32.268A2.274,2.274,0,0,0,7.2,33.525l1.214,1.825a2.272,2.272,0,0,0,1.892,1.014h4.383a2.272,2.272,0,0,0,1.892-1.014L17.8,33.525a2.272,2.272,0,0,0,.381-1.256l0-2.724H6.819ZM0,12.5a12.43,12.43,0,0,0,3.094,8.223,20.41,20.41,0,0,1,3.708,6.5c0,.018,0,.037.008.055H18.19c0-.018,0-.036.008-.055a20.41,20.41,0,0,1,3.708-6.5A12.5,12.5,0,1,0,0,12.5ZM12.5,6.817A5.688,5.688,0,0,0,6.818,12.5a1.136,1.136,0,0,1-2.273,0A7.963,7.963,0,0,1,12.5,4.545a1.136,1.136,0,0,1,0,2.273Z" transform="translate(0 0.001)" fill="#5f5f5f"/>
</svg>
