<svg xmlns="http://www.w3.org/2000/svg" width="20.625" height="30" viewBox="0 0 20.625 30">
  <path id="lightbulb" d="M5.628,26.621a1.876,1.876,0,0,0,.314,1.036l1,1.505A1.874,1.874,0,0,0,8.5,30H12.12a1.874,1.874,0,0,0,1.561-.837l1-1.505A1.874,1.874,0,0,0,15,26.621l0-2.247H5.625ZM0,10.311A10.255,10.255,0,0,0,2.552,17.1a16.838,16.838,0,0,1,3.059,5.358c0,.015,0,.03.006.046h9.389c0-.015,0-.03.006-.046A16.838,16.838,0,0,1,18.072,17.1,10.31,10.31,0,1,0,0,10.311ZM10.312,5.624a4.693,4.693,0,0,0-4.687,4.687.937.937,0,1,1-1.875,0,6.57,6.57,0,0,1,6.562-6.562.937.937,0,0,1,0,1.875Z" transform="translate(0 0.001)" fill="#2276ac"/>
</svg>
