<svg xmlns="http://www.w3.org/2000/svg" width="25" height="25" viewBox="0 0 25 25">
  <path id="times-circle" d="M20.5,8A12.5,12.5,0,1,0,33,20.5,12.5,12.5,0,0,0,20.5,8Zm6.129,15.781a.605.605,0,0,1,0,.857l-2,1.991a.605.605,0,0,1-.857,0L20.5,23.323l-3.281,3.306a.605.605,0,0,1-.857,0l-1.991-2a.605.605,0,0,1,0-.857L17.677,20.5l-3.306-3.281a.605.605,0,0,1,0-.857l2-2a.605.605,0,0,1,.857,0L20.5,17.677l3.281-3.306a.605.605,0,0,1,.857,0l2,2a.605.605,0,0,1,0,.857L23.323,20.5Z" transform="translate(-8 -8)"/>
</svg>
